<?xml version="1.0" encoding="utf-8"?>
<!-- Generator: Adobe Illustrator 28.0.0, SVG Export Plug-In . SVG Version: 6.00 Build 0)  -->
<svg version="1.1" id="Vrstva_1" xmlns="http://www.w3.org/2000/svg" xmlns:xlink="http://www.w3.org/1999/xlink" x="0px" y="0px"
	 viewBox="0 0 935.4 935.4" style="enable-background:new 0 0 935.4 935.4;" xml:space="preserve">
<style type="text/css">
	.st0{fill:#F4FFF8;}
</style>
<g id="Vrstva_1_00000000222665071171024020000003566325874605432226_">
</g>
<g id="Vrstva_2_00000163056967167382493820000011597782051242509221_">
</g>
<path class="st0" d="M878.4,294.2c-22.4-53.1-54.6-100.7-95.5-141.7c-40.9-40.9-88.6-73.1-141.7-95.5c-55-23.2-113.3-35-173.5-35
	s-118.5,11.8-173.5,35c-53.1,22.4-100.7,54.6-141.7,95.5c-40.9,40.9-73.1,88.6-95.5,141.7c-23.2,55-35,113.3-35,173.5
	c0,60.2,11.8,118.5,35,173.5c22.4,53.1,54.6,100.7,95.5,141.7c40.9,40.9,88.6,73.1,141.7,95.5c55,23.2,113.3,35,173.5,35
	c60.2,0,118.5-11.8,173.5-35c53.1-22.4,100.7-54.6,141.7-95.5c40.9-40.9,73.1-88.6,95.5-141.7c23.2-55,35-113.3,35-173.5
	C913.4,407.6,901.6,349.2,878.4,294.2z M872.4,467.7c0,88.4-29.3,174.8-82.8,245v-490C843.1,292.9,872.4,379.3,872.4,467.7z
	 M748.6,216v503.7L496.8,467.8L748.6,216z M487.8,418.8V63.5c93.1,4.6,181.8,41.4,251.2,104.1L487.8,418.8z M738.9,767.9
	c-69.3,62.7-158.1,99.5-251.1,104V516.8L738.9,767.9z M446.8,517.8v354.1c-92.6-4.8-181.1-41.5-250.2-103.9L446.8,517.8z
	 M196.5,167.6c69.1-62.5,157.5-99.2,250.2-104v354.3L196.5,167.6z M438.8,467.8l-251,251v-502L438.8,467.8z M146.8,221.4V714
	C92.7,643.6,63,556.7,63,467.7C63,378.7,92.7,291.9,146.8,221.4z"/>
</svg>
