<?xml version="1.0" encoding="utf-8"?>
<!-- Generator: Adobe Illustrator 28.0.0, SVG Export Plug-In . SVG Version: 6.00 Build 0)  -->
<svg version="1.1" xmlns="http://www.w3.org/2000/svg" xmlns:xlink="http://www.w3.org/1999/xlink" x="0px" y="0px"
	 viewBox="0 0 935.43 935.43" style="enable-background:new 0 0 935.43 935.43;" xml:space="preserve">
<style type="text/css">
	.st0{fill:#FFFFFF;stroke:#000000;stroke-width:12;stroke-miterlimit:10;}
	.st1{fill:#FFFFFF;stroke:#000000;stroke-width:31;stroke-linejoin:bevel;stroke-miterlimit:10;}
	.st2{fill:none;stroke:#000000;stroke-width:27;stroke-miterlimit:10;}
	.st3{fill:none;stroke:#FFFFFF;stroke-width:25;stroke-linejoin:bevel;stroke-miterlimit:10;}
	.st4{stroke:#FFFFFF;stroke-width:25;stroke-miterlimit:10;}
	.st5{fill:none;stroke:#FFFFFF;stroke-width:25;stroke-miterlimit:10;}
	.st6{fill:none;stroke:#000000;stroke-width:25;stroke-miterlimit:10;}
	.st7{fill:none;stroke:#000000;stroke-width:25;stroke-linejoin:bevel;stroke-miterlimit:10;}
	.st8{stroke:#000000;stroke-width:25;stroke-miterlimit:10;}
	.st9{fill:#FFFFFF;}
	.st10{fill:#282828;}
	.st11{fill:#1E1E1E;}
	.st12{fill:none;stroke:#000000;stroke-width:30;stroke-miterlimit:10;}
	.st13{fill:none;stroke:#004782;stroke-width:30;stroke-miterlimit:10;}
	.st14{fill:#004782;}
	.st15{fill:none;stroke:#282828;stroke-width:30;stroke-miterlimit:10;}
	.st16{fill:none;stroke:#FFFFFF;stroke-width:30;stroke-miterlimit:10;}
	.st17{fill:none;stroke:#1E1E1E;stroke-width:30;stroke-miterlimit:10;}
</style>
<g id="Vrstva_1">
</g>
<g id="Vrstva_2">
</g>
<g id="Vrstva_3">
	<path d="M873.31,296.37c-22.17-52.42-53.91-99.5-94.33-139.92s-87.5-72.16-139.92-94.33c-54.28-22.96-111.93-34.6-171.35-34.6
		s-117.07,11.64-171.35,34.6c-52.42,22.17-99.5,53.91-139.92,94.33s-72.16,87.5-94.33,139.92c-22.96,54.28-34.6,111.93-34.6,171.35
		s11.64,117.07,34.6,171.35c22.17,52.42,53.91,99.49,94.33,139.92c40.42,40.42,87.5,72.16,139.92,94.33
		c54.28,22.96,111.93,34.6,171.35,34.6s117.07-11.64,171.35-34.6c52.42-22.17,99.5-53.91,139.92-94.33
		c40.42-40.42,72.16-87.5,94.33-139.92c22.96-54.28,34.6-111.93,34.6-171.35S896.27,350.65,873.31,296.37z M746.93,167.47
		L482.3,432.09V57.78C584.31,61.36,676.97,102.37,746.93,167.47z M754.13,202.69v530.23L489.02,467.8L754.13,202.69z M452.3,57.81
		v373.28l-263.7-263.7C258.35,102.51,350.66,61.58,452.3,57.81z M446.59,467.8L182.3,732.09V203.51L446.59,467.8z M57.52,467.72
		c0-99.51,35.62-190.86,94.78-261.96v523.93C93.14,658.57,57.52,567.23,57.52,467.72z M188.69,768.13L452.3,504.52v373.1
		C350.71,873.85,258.44,832.95,188.69,768.13z M482.3,877.65V503.51l264.53,264.53C676.89,833.1,584.27,874.07,482.3,877.65z
		 M784.13,728.48V206.95c58.56,70.93,93.78,161.82,93.78,260.77C877.91,566.67,842.69,657.55,784.13,728.48z"/>
</g>
</svg>
