<svg width="38" height="59" viewBox="0 0 38 59" fill="none" xmlns="http://www.w3.org/2000/svg">
<path d="M20.1686 52.6811C21.7555 53.4245 23.1116 54.0821 24.4965 54.7398C24.4677 54.8255 24.4677 54.9113 24.4388 54.9685C24.9005 54.9113 25.391 54.8255 25.8526 54.7684C27.7569 54.5682 30.094 55.7405 30.8442 57.3131C31.3635 58.3996 31.0173 58.9142 29.6612 59C29.4881 58.7713 29.2861 58.5139 29.0842 58.2566C28.2186 57.0271 26.9779 56.5411 25.5641 56.8842C24.3523 57.1415 23.4867 56.8556 22.5634 56.0836C20.6591 54.4824 17.3987 54.4252 15.4656 55.9978C14.3692 56.8556 13.3305 57.1129 12.0032 56.8556C10.1566 56.5125 8.8294 57.2845 8.07922 58.9142C6.66543 58.857 6.23263 58.2566 6.80969 57.1415C7.44446 55.9692 8.48316 55.2544 9.75269 55.0257C10.9068 54.7969 12.1186 54.8541 13.4459 54.7684C14.802 54.1107 16.36 53.3673 18.0912 52.5096C17.9181 51.9663 17.6872 51.2515 17.4564 50.5367C15.7252 50.4223 14.1672 50.3652 12.6668 50.1936C6.4346 49.393 2.04896 45.4473 0.57746 39.4429C0.346637 38.4708 0.144666 37.4987 0.0292547 36.4979C-0.11501 35.2685 0.260078 34.7824 1.4719 34.668C5.13622 34.3249 8.68513 34.811 11.9167 36.6695C14.6577 38.2421 16.5043 40.558 17.5141 43.503C17.6295 43.8175 17.745 44.1321 17.8604 44.4752C18.2066 43.5316 18.2932 31.3799 17.9469 29.5786C17.4276 30.0075 16.9948 30.4078 16.5043 30.7509C16.0715 31.0654 15.6387 31.3799 15.2059 31.6373C12.7534 33.0383 11.253 32.495 10.7625 29.7216C10.5029 28.3492 10.7625 26.891 10.8491 25.4899C10.878 24.9753 11.0799 24.4892 11.253 23.8602C10.272 23.8602 9.40646 23.9174 8.56972 23.8602C6.89625 23.7458 5.36705 23.174 4.03981 22.2018C2.71258 21.2297 2.59716 20.5149 3.52046 19.1997C4.76113 17.4269 6.40575 16.1403 8.71399 15.4541C8.36775 15.0538 8.10807 14.7393 7.81954 14.4534C5.97296 12.5091 5.19393 10.1645 5.22278 7.53404C5.22278 6.13303 5.59787 5.67555 6.95396 5.24667C8.8871 4.64623 10.7625 5.10371 12.5803 5.76133C13.0996 5.96147 13.619 6.2188 14.2826 6.50472C14.5134 5.93288 14.7442 5.41822 14.9462 4.90356C15.4944 3.38818 16.3312 2.07293 17.5141 0.986431C18.8702 -0.32881 19.9089 -0.32881 21.2362 0.986431C22.4191 2.15871 23.2559 3.53114 23.7464 5.10371C23.8906 5.53259 24.0349 5.99007 24.2369 6.50472C24.6985 6.27599 25.1024 6.10443 25.4775 5.93288C27.1222 5.18948 28.8533 4.81779 30.6711 4.96075C32.1714 5.07511 32.835 5.73274 32.9504 7.19094C33.2101 10.3933 32.4599 13.2525 29.8055 15.4827C30.296 15.7114 30.6711 15.883 31.0462 16.0545C32.6619 16.7979 33.9314 17.9416 34.8547 19.4284C35.5761 20.6293 35.4606 21.2869 34.3642 22.1161C32.6908 23.4027 30.8153 23.9746 28.7091 23.8888C28.2474 23.8602 27.7569 23.8316 27.2087 23.8316C27.8146 25.8045 28.2474 27.6915 27.7569 29.6644C26.949 32.8095 25.5064 33.3814 22.8231 31.5515C21.9575 30.9511 21.2073 30.2362 20.1975 29.4071C20.1975 34.5251 20.1975 39.4715 20.1975 44.6753C21.5247 39.8718 24.3811 36.6123 28.9399 34.9826C31.7386 33.9818 34.6239 33.7245 37.4803 34.0962C38.2882 35.4114 37.9709 36.6123 37.74 37.756C36.5571 43.503 32.5754 49.0213 24.6697 49.6504C23.8618 49.7075 23.0539 49.8219 22.2172 49.8791C20.5725 50.022 20.2552 50.3366 20.1975 51.9949C20.1109 52.2236 20.1397 52.5096 20.1686 52.6811ZM7.12707 41.5302C7.76184 40.1577 8.22348 39.9862 9.23334 40.7868C11.3107 42.3879 13.3593 44.0463 15.4079 45.676C15.6675 45.8762 15.9561 46.1049 16.3023 46.3908C14.8597 38.5566 7.38675 35.8117 2.02011 36.8982C2.68372 40.8154 4.29949 44.1321 7.67528 46.448C10.0124 48.0778 12.7245 48.3637 15.5233 48.2779C13.2439 46.3051 10.878 44.5323 8.54087 42.731C8.05037 42.3307 7.55987 41.9019 7.12707 41.5302ZM22.6788 47.5059C30.094 48.0206 35.2587 42.6167 35.778 36.0691C28.1897 35.583 22.8231 39.7575 21.7555 45.8476C24.4388 43.4744 26.8048 40.9583 29.9497 39.5001C31.1039 40.3293 31.1039 40.701 30.094 41.5016C28.5071 42.731 26.8913 43.9319 25.3333 45.19C24.4388 45.8762 23.6309 46.6768 22.6788 47.5059ZM30.6711 7.19094C26.2277 6.04725 21.4093 10.5934 21.9575 15.3969C27.6127 15.9116 31.7963 11.9658 30.6711 7.19094ZM16.3312 15.1682C15.581 9.33535 11.6281 5.8471 7.38675 7.24812C6.46346 12.0516 10.6471 15.8258 16.3312 15.1682ZM19.505 14.6535C20.3994 12.4805 21.2362 10.5362 22.044 8.56336C22.1306 8.33463 22.2172 8.10589 22.2172 7.87715C22.0152 5.67555 21.1496 3.81706 19.5915 2.27308C18.0335 3.18803 17.0813 4.67482 16.4177 6.9622C16.2157 7.73419 16.2446 8.4204 16.5331 9.1638C17.139 10.765 17.6872 12.3661 18.2355 13.9959C18.2932 14.1674 18.4374 14.3104 18.5528 14.5391C18.8702 14.5677 19.2453 14.5963 19.505 14.6535ZM5.16508 20.3433C6.95396 22.2018 11.5127 22.4306 14.0518 20.4863C15.1482 19.6571 15.3213 19.1139 14.9462 17.6557C10.4163 16.512 6.8674 17.4269 5.16508 20.3433ZM20.082 22.4592C19.7069 26.0904 21.8998 29.4357 25.1024 30.1791C27.2087 27.2627 25.4775 22.7737 21.7555 21.63C21.2073 21.9159 20.6014 22.2018 20.082 22.4592ZM23.1116 17.6557C22.7077 19.314 22.8231 19.6285 24.0926 20.4863C26.4297 22.0589 28.911 22.2018 31.5078 21.2583C32.0271 21.0867 32.4599 20.715 32.9216 20.4291C31.075 17.4555 27.6992 16.5406 23.1116 17.6557ZM13.3016 30.2077C16.7928 29.0926 18.6394 26.0332 17.9469 22.402C17.2545 22.1161 16.5331 21.8015 15.8695 21.5442C12.5803 23.7458 11.5704 27.3198 13.3016 30.2077ZM18.8414 20.5721C19.9955 20.6007 21.0053 19.6285 21.0342 18.4277C21.0342 17.3126 20.1974 16.4262 19.101 16.3976C17.9469 16.369 16.9082 17.3698 16.9082 18.542C16.9082 19.6285 17.7738 20.5435 18.8414 20.5721Z" fill="#193E41"/>
</svg>
