<svg width="31" height="37" viewBox="0 0 31 37" fill="none" xmlns="http://www.w3.org/2000/svg">
<path d="M16.5786 28.6607C20.6077 29.666 21.3966 30.0681 23.6789 32.3372C24.3551 32.3372 25.0877 32.3085 25.8484 32.3372C27.9616 32.4234 29.6803 33.285 30.7228 35.2094C31.3145 36.3008 30.9764 36.8179 29.5394 36.8466C28.1306 33.9169 25.4539 34.2616 22.89 34.3765C22.3828 33.8882 21.932 33.4573 21.5093 33.0265C19.1707 30.7862 16.4095 30.3266 13.3947 31.0447C12.0141 31.3606 10.8307 32.05 9.98544 33.1701C9.25287 34.1467 8.35124 34.4913 7.16786 34.3765C6.46346 34.2903 5.75907 34.319 5.05467 34.3765C3.64588 34.4626 2.51885 35.0084 1.89899 36.4157C1.81446 36.5881 1.70175 36.7317 1.58905 36.8753C1.56088 36.904 1.50452 36.9327 1.39182 36.9902C0.602899 37.0764 0.208437 36.5881 0.321141 35.8126C0.405668 35.2381 0.687426 34.635 1.08189 34.1754C2.09622 32.9116 3.53318 32.4521 5.08285 32.3946C6.01265 32.3659 6.97063 32.3946 7.98496 32.3946C9.76003 30.6713 11.6478 29.0341 14.3809 28.7756C14.3809 24.0652 14.3809 19.4122 14.3809 14.6443C13.3665 14.5869 12.4367 14.5581 11.5351 14.472C8.01313 14.2135 4.97015 12.9497 2.68791 10.0775C1.02554 8.0382 0.321141 5.56809 0.0112069 2.95437C-0.0733205 2.0927 0.321141 1.54698 1.16641 1.43209C5.44914 0.85765 9.47827 1.37465 12.6621 4.62026C13.761 5.74042 14.4372 7.29142 15.3952 8.72753C15.5361 8.44031 15.7333 8.09564 15.846 7.72226C18.2973 1.40337 24.0733 -0.57846 29.6803 0.139595C30.4974 0.254484 30.8919 0.714039 30.8919 1.60443C31.0046 6.71698 27.3136 12.0019 22.5237 13.5816C21.5939 13.8975 20.6077 14.0986 19.6497 14.2709C18.6918 14.4433 17.7056 14.5007 16.5786 14.6156C16.5786 19.2686 16.5786 23.979 16.5786 28.6607ZM16.8603 12.3465C23.2281 12.5763 28.1306 8.92859 28.7223 2.29376C22.7491 1.02998 17.283 5.68298 16.8603 12.3465ZM14.1273 12.404C12.5776 5.56809 7.64685 1.94909 2.15257 3.50009C3.11054 9.93387 7.64685 12.9497 14.1273 12.404Z" fill="#193E41"/>
</svg>
