<svg width="37" height="56" viewBox="0 0 37 56" fill="none" xmlns="http://www.w3.org/2000/svg">
<path d="M18.9693 55.2855C18.4575 55.5427 18.0309 55.7714 17.5475 56C15.4999 53.3706 16.2678 50.3697 16.0118 47.3688C14.5331 48.5691 13.0259 49.4837 12.3149 51.1985C12.059 51.7701 11.7462 52.1988 11.0068 51.9416C10.3243 51.4272 10.4096 50.7698 10.7224 50.141C11.0921 49.4265 11.5471 48.7406 12.059 48.1404C12.5424 47.5688 13.0827 46.9972 13.7084 46.5971C16.5237 44.8251 17.1493 42.1386 16.9218 38.8233C15.2724 40.7096 13.1396 41.5098 11.1205 42.5101C9.32898 43.3961 8.13459 44.8251 7.48053 46.7114C7.25303 47.3402 6.99709 47.9404 6.79803 48.4834C5.46146 48.5691 5.00645 48.169 5.31927 47.083C5.66052 45.9112 6.28615 44.8251 6.8549 43.7391C7.05396 43.3389 7.42365 42.996 7.79334 42.5101C6.34302 42.11 4.8927 43.0246 3.47082 42.1672C3.49926 41.767 3.49926 41.3097 3.5277 40.681C4.32395 40.5667 5.06333 40.3952 5.77427 40.338C7.50897 40.2237 9.30054 40.2809 11.0068 40.0236C13.5377 39.6807 15.1871 37.9659 16.5521 35.9367C16.6659 35.7652 16.6659 35.5079 16.7796 35.1364C14.1349 35.1364 11.5755 35.1364 9.01616 35.1364C6.59896 35.1364 4.18176 35.1364 1.76456 35.1364C1.53706 35.1364 1.28112 35.1364 1.05362 35.1364C0.456433 35.0792 0.0583057 34.7649 0.00143042 34.1647C-0.0270072 33.5359 0.37112 33.2215 0.96831 33.1644C1.39487 33.1072 1.82144 33.1358 2.248 33.1358C6.59896 33.1358 10.9784 33.1358 15.3293 33.1358C15.7843 33.1358 16.2393 33.1072 16.8365 33.0786C16.8365 31.3638 16.865 29.7347 16.8365 28.1342C16.8081 25.2762 16.8081 22.4753 16.6374 19.6745C16.5237 17.9311 15.8412 17.3023 14.1065 17.188C7.42365 16.845 2.67457 12.1865 1.30956 5.47009C1.08206 4.41262 0.996748 3.29799 0.96831 2.21194C0.939873 0.954406 1.25269 0.668603 2.44707 0.640023C11.1774 0.35422 17.3768 6.12743 17.4906 14.873C17.4906 15.3303 17.4906 15.759 17.4906 16.2163C17.6328 16.2163 17.775 16.2448 17.9456 16.2448C17.974 15.8161 18.0025 15.416 18.0593 14.9873C18.2868 13.2439 18.3437 11.4434 18.7987 9.78571C20.3059 4.32688 25.055 0.525702 30.7141 0.0684176C31.7378 -0.0173232 32.79 -0.0173232 33.8422 0.0398374C34.3541 0.0684176 34.866 0.35422 35.2925 0.468541C35.8613 7.15632 31.88 16.0734 22.2965 17.1308C19.8225 17.4166 19.0831 17.9025 18.9978 20.4747C18.8271 24.5903 18.9409 28.7344 18.9409 33.0215C19.5096 33.05 20.0215 33.1072 20.5334 33.1072C25.3678 33.1072 30.2022 33.1072 35.0366 33.1072C35.4632 33.1072 35.9466 33.0215 36.2879 33.2215C36.6291 33.4216 36.9704 33.8789 36.9988 34.279C37.0272 34.5362 36.5438 34.9649 36.2025 35.0792C35.8329 35.2221 35.3494 35.1364 34.9513 35.1364C30.2022 35.1364 25.4816 35.1364 20.7325 35.1364C20.2206 35.1364 19.7087 35.1364 19.0262 35.1364C19.1684 35.5365 19.1968 35.8795 19.3675 36.1081C21.1306 38.8233 23.434 40.5667 26.875 40.338C28.1547 40.2523 29.4344 40.2523 30.7141 40.338C31.9369 40.4238 32.1644 40.881 31.6525 42.3101C30.4297 42.3101 29.1216 42.3101 27.4722 42.3101C28.9509 44.1392 30.2306 45.7111 30.1738 48.0833C29.7188 48.2262 29.2638 48.3405 28.7234 48.512C28.4959 47.9118 28.3538 47.4831 28.1831 47.0544C27.3016 44.7394 25.9081 42.9102 23.4909 42.0243C21.8415 41.4241 20.3912 40.4238 19.14 38.909C18.6565 41.0239 18.4859 42.7102 20.1637 44.3392C21.614 45.7683 22.6662 47.6546 23.8606 49.3694C24.1734 49.8267 24.3156 50.3983 24.5716 51.0556C24.0597 51.3414 23.6615 51.5701 23.2065 51.8273C21.6425 49.5123 20.1922 47.3402 18.7134 45.1681C18.5996 45.2252 18.4575 45.2824 18.3437 45.311C17.7181 48.6549 17.7181 51.9416 18.9693 55.2855ZM21.3581 15.1016C27.6997 15.2445 34.411 7.72793 33.1882 2.06904C24.4578 1.52601 19.7656 8.32811 20.1637 13.6155C21.8415 11.8435 23.4909 10.0715 25.1403 8.32811C25.5953 7.84225 26.0503 7.35639 26.5622 6.92768C27.0741 6.49898 27.6144 6.27034 28.1831 6.84194C28.5528 7.64219 28.0694 8.09947 27.5859 8.58534C25.8512 10.3859 24.0881 12.1865 22.325 13.987C22.0122 14.33 21.7278 14.6729 21.3581 15.1016ZM13.9359 15.0445C13.5377 14.5872 13.2534 14.2442 12.9121 13.9013C11.4618 12.4437 10.0115 11.0147 8.5896 9.55707C8.19147 9.15694 7.90709 8.6425 7.59428 8.21379C8.19147 7.29922 8.76022 7.21348 9.38585 7.72793C9.81242 8.09947 10.2105 8.52818 10.6087 8.89972C12.2296 10.4145 13.8506 11.9292 15.3293 13.3011C15.2724 6.87052 9.24366 2.35484 3.0727 2.72638C2.27644 8.3567 7.65116 14.5872 13.9359 15.0445Z" fill="#193E41"/>
</svg>
