<?xml version="1.0" encoding="utf-8"?>
<!-- Generator: Adobe Illustrator 28.0.0, SVG Export Plug-In . SVG Version: 6.00 Build 0)  -->
<svg version="1.1" id="Vrstva_1" xmlns="http://www.w3.org/2000/svg" xmlns:xlink="http://www.w3.org/1999/xlink" x="0px" y="0px"
	 viewBox="0 0 57.81 63.05" style="enable-background:new 0 0 57.81 63.05;" xml:space="preserve">
<style type="text/css">
	.st0{fill:none;stroke:#1D1D1B;stroke-miterlimit:10;}
	.st1{fill:#1D1D1B;}
	.st2{fill:#193E41;}
	.st3{fill:#FF6978;}
	.st4{fill:#8BAAAD;}
	.st5{fill:#F4FFF8;}
	.st6{fill-rule:evenodd;clip-rule:evenodd;fill:#8BAAAD;}
</style>
<g>
	<g>
		<g>
			<path class="st3" d="M43.23,63.05c-4.2-0.01-8.05-1.21-11.64-3.38c-6.3-3.79-11.59-8.71-16.36-14.26
				c-3.76-4.38-7.25-8.95-10.08-13.99c-2.01-3.58-3.71-7.3-4.62-11.34c-0.86-3.83-0.75-7.6,0.76-11.25C3.72,2.97,8.53,0.01,14.9,0
				c0.95,0,1.92,0.02,2.78,0.57c1.1,0.71,1.74,1.76,2.09,2.96c0.44,1.49,0.81,3.01,1.12,4.54c0.58,2.8,1.11,5.61,1.66,8.42
				c0.17,0.84-0.08,1.55-0.66,2.16c-0.75,0.79-1.7,1.25-2.68,1.67c-0.87,0.37-1.74,0.73-2.58,1.15c-0.96,0.48-1.12,0.93-0.95,2.01
				c0.32,2.09,1.35,3.91,2.29,5.75c3.04,5.97,7.39,10.8,12.9,14.6c0.83,0.57,1.62,1.23,2.49,1.72c1.88,1.06,2.86,0.77,4.02-1.06
				c0.47-0.74,0.93-1.48,1.41-2.21c0.15-0.23,0.35-0.42,0.53-0.63c1.05-1.2,2.23-1.61,3.84-1.02c4.11,1.5,8.17,3.09,12.02,5.17
				c2.46,1.33,2.94,2.08,2.47,4.83c-0.93,5.46-3.87,9.43-9.07,11.58C46.88,62.93,45.06,63.05,43.23,63.05z"/>
		</g>
	</g>
</g>
</svg>
