<?xml version="1.0" encoding="utf-8"?>
<!-- Generator: Adobe Illustrator 28.0.0, SVG Export Plug-In . SVG Version: 6.00 Build 0)  -->
<svg version="1.1" id="Vrstva_1" xmlns="http://www.w3.org/2000/svg" xmlns:xlink="http://www.w3.org/1999/xlink" x="0px" y="0px"
	 viewBox="0 0 63.66 66.77" style="enable-background:new 0 0 63.66 66.77;" xml:space="preserve">
<style type="text/css">
	.st0{fill:none;stroke:#1D1D1B;stroke-miterlimit:10;}
	.st1{fill:#1D1D1B;}
	.st2{fill:#193E41;}
	.st3{fill:#FF6978;}
	.st4{fill:#8BAAAD;}
	.st5{fill:#F4FFF8;}
	.st6{fill-rule:evenodd;clip-rule:evenodd;fill:#8BAAAD;}
</style>
<g>
	<g>
		<g>
			<path class="st3" d="M31.68,66.75c-8.72,0-17.45,0-26.17,0c-0.46,0-0.93,0-1.39-0.04c-3.36-0.28-4.56-1.75-3.96-5.1
				c1.26-7.04,4.28-13.23,9.24-18.43c2.96-3.11,6.4-5.58,10.36-7.24c0.73-0.3,1.84-0.29,2.55,0.05c6.36,3.02,12.65,3.02,19.01,0.03
				c0.76-0.35,1.96-0.38,2.71-0.03c10.97,5.17,17.26,13.97,19.49,25.75c0.66,3.49-0.84,4.97-4.79,5
				c-6.46,0.04-12.91,0.01-19.37,0.01C36.79,66.75,34.23,66.75,31.68,66.75z"/>
			<path class="st3" d="M31.73,33.44c-9.3-0.01-16.71-7.45-16.69-16.75C15.07,7.44,22.63-0.07,31.86,0
				C41,0.07,48.52,7.62,48.5,16.72C48.48,25.99,41,33.45,31.73,33.44z"/>
		</g>
	</g>
</g>
</svg>
