<?xml version="1.0" encoding="utf-8"?>
<!-- Generator: Adobe Illustrator 28.0.0, SVG Export Plug-In . SVG Version: 6.00 Build 0)  -->
<svg version="1.1" id="Vrstva_1" xmlns="http://www.w3.org/2000/svg" xmlns:xlink="http://www.w3.org/1999/xlink" x="0px" y="0px"
	 viewBox="0 0 70.56 53.7" style="enable-background:new 0 0 70.56 53.7;" xml:space="preserve">
<style type="text/css">
	.st0{fill:none;stroke:#1D1D1B;stroke-miterlimit:10;}
	.st1{fill:#1D1D1B;}
	.st2{fill:#193E41;}
	.st3{fill:#FF6978;}
	.st4{fill:#8BAAAD;}
	.st5{fill:#F4FFF8;}
	.st6{fill-rule:evenodd;clip-rule:evenodd;fill:#8BAAAD;}
</style>
<g>
	<g>
		<g>
			<path class="st3" d="M69.76,3.6c0.35,2.21,0.75,3.61,0.76,5c0.05,12.13,0.06,24.26,0.02,36.4c-0.02,5.48-3.2,8.67-8.65,8.68
				c-17.72,0.03-35.45,0.03-53.17,0c-5.47-0.01-8.66-3.17-8.68-8.64C-0.02,32.9,0,20.77,0.04,8.64c0.01-1.4,0.39-2.8,0.69-4.82
				c2.63,2.92,4.81,5.32,6.97,7.74c5.7,6.36,11.39,12.74,17.09,19.1c6.46,7.21,14.51,7.22,20.96,0.01
				c7.17-8.02,14.33-16.05,21.49-24.08C67.93,5.8,68.58,5,69.76,3.6z"/>
			<path class="st3" d="M5.06,0C25.43,0,45.1,0,65.17,0c-0.51,0.84-0.77,1.49-1.21,1.98c-7.5,8.43-15.13,16.75-22.48,25.31
				c-3.22,3.76-9,3.96-12.36,0.04c-7.35-8.56-15-16.86-22.52-25.27C6.19,1.6,5.86,1.08,5.06,0z"/>
		</g>
	</g>
</g>
</svg>
