<?xml version="1.0" encoding="utf-8"?>
<!-- Generator: Adobe Illustrator 28.0.0, SVG Export Plug-In . SVG Version: 6.00 Build 0)  -->
<svg version="1.1" id="Vrstva_1" xmlns="http://www.w3.org/2000/svg" xmlns:xlink="http://www.w3.org/1999/xlink" x="0px" y="0px"
	 viewBox="0 0 17 12.7" style="enable-background:new 0 0 17 12.7;" xml:space="preserve">
<style type="text/css">
	.st0{fill:#193E41;}
</style>
<path class="st0" d="M16.8,0.7C16.9,1.2,17,1.5,17,1.9c0,2.9,0,5.8,0,8.8c0,1.3-0.8,2.1-2.1,2.1c-4.3,0-8.5,0-12.8,0
	C0.8,12.7,0,12,0,10.6c0-2.9,0-5.8,0-8.8c0-0.3,0.1-0.7,0.2-1.2C0.8,1.4,1.3,2,1.9,2.6C3.2,4.1,4.6,5.6,6,7.2c1.6,1.7,3.5,1.7,5,0
	c1.7-1.9,3.5-3.9,5.2-5.8C16.4,1.2,16.5,1,16.8,0.7z"/>
<path class="st0" d="M1.3,0.3c4.9,0,9.6,0,14.5,0c-0.1,0.2-0.2,0.4-0.3,0.5c-1.8,2-3.6,4-5.4,6.1c-0.8,0.9-2.2,1-3,0
	C5.3,4.8,3.4,2.8,1.6,0.7C1.5,0.6,1.5,0.5,1.3,0.3z"/>
</svg>
