<svg width="19" height="20" viewBox="0 0 19 20" fill="none" xmlns="http://www.w3.org/2000/svg">
<path d="M9.16664 19.3214C6.64257 19.3214 4.11561 19.3214 1.59154 19.3214C1.45839 19.3214 1.32235 19.3214 1.1892 19.3098C0.216622 19.2288 -0.130727 18.8033 0.0429478 17.8336C0.407664 15.7958 1.28182 14.0041 2.71753 12.4989C3.57433 11.5987 4.57006 10.8837 5.71631 10.4032C5.92761 10.3164 6.24891 10.3193 6.45443 10.4177C8.29537 11.2918 10.1161 11.2918 11.957 10.4264C12.177 10.3251 12.5243 10.3164 12.7414 10.4177C15.9168 11.9142 17.7375 14.4614 18.383 17.8712C18.574 18.8814 18.1398 19.3098 16.9965 19.3185C15.1266 19.3301 13.2596 19.3214 11.3897 19.3214C10.6458 19.3214 9.90476 19.3214 9.16664 19.3214Z" fill="#193E41"/>
<path d="M9.18115 9.67959C6.4892 9.6767 4.34432 7.52313 4.35011 4.83118C4.35879 2.1537 6.54709 -0.0201215 9.21878 0.000140504C11.8644 0.0204025 14.0411 2.2058 14.0353 4.83986C14.0296 7.52313 11.8644 9.68248 9.18115 9.67959Z" fill="#193E41"/>
</svg>
