<svg width="16" height="18" viewBox="0 0 16 18" fill="none" xmlns="http://www.w3.org/2000/svg">
<path d="M11.9651 17.4471C10.8029 17.4444 9.73748 17.1123 8.74406 16.5118C7.00073 15.4631 5.53689 14.1016 4.21693 12.5658C3.17647 11.3538 2.21072 10.0892 1.4276 8.69452C0.871398 7.70386 0.400975 6.67447 0.14916 5.55652C-0.0888181 4.49669 -0.058379 3.45346 0.359467 2.44343C1.0319 0.821856 2.36291 0.00276719 4.12562 0C4.3885 0 4.65692 0.00553438 4.8949 0.15773C5.19929 0.354201 5.37639 0.644756 5.47324 0.976819C5.595 1.38913 5.69738 1.80974 5.78317 2.23312C5.94366 3.00794 6.09032 3.78552 6.24252 4.5631C6.28956 4.79554 6.22038 4.99202 6.05988 5.16081C5.85235 5.37942 5.58946 5.50671 5.31828 5.62294C5.07753 5.72532 4.83679 5.82494 4.60434 5.94116C4.33869 6.07399 4.29442 6.19851 4.34146 6.49737C4.43001 7.07571 4.71503 7.57934 4.97514 8.0885C5.81637 9.74052 7.0201 11.0771 8.54482 12.1286C8.7745 12.2863 8.99311 12.469 9.23386 12.6046C9.75409 12.8979 10.0253 12.8176 10.3463 12.3112C10.4763 12.1065 10.6036 11.9017 10.7364 11.6997C10.7779 11.636 10.8333 11.5835 10.8831 11.5254C11.1737 11.1933 11.5002 11.0798 11.9457 11.2431C13.083 11.6582 14.2065 12.0982 15.2719 12.6737C15.9526 13.0418 16.0854 13.2493 15.9554 14.0103C15.698 15.5212 14.8845 16.6198 13.4455 17.2147C12.9751 17.4139 12.4715 17.4471 11.9651 17.4471Z" fill="#193E41"/>
</svg>
